<svg xmlns="http://www.w3.org/2000/svg" xmlns:xlink="http://www.w3.org/1999/xlink" width="91.14" height="84.25" viewBox="0 0 91.14 84.25">
  <defs>
    <style>
      .a {
        fill: #7f0912;
        opacity: 0.38;
      }

      .b {
        fill: #ed8585;
      }

      .c {
        fill: #ffb8b8;
      }

      .d, .f, .h {
        fill: #fff;
      }

      .d {
        opacity: 0.07;
      }

      .e {
        fill: #0f0f0f;
      }

      .g {
        fill: #fe9494;
      }

      .h {
        opacity: 0.06;
      }

      .i {
        clip-path: url(#a);
      }

      .j {
        clip-path: url(#b);
      }

      .k {
        fill: #fca9a9;
      }
    </style>
    <clipPath id="a">
      <ellipse class="a" cx="57.26" cy="54.62" rx="5.81" ry="8.44"/>
    </clipPath>
    <clipPath id="b">
      <ellipse class="a" cx="33.26" cy="54.62" rx="5.81" ry="8.44"/>
    </clipPath>
  </defs>
  <title>Asset 1</title>
  <g>
    <path class="b" d="M83,14.91c0,8-7.44,9.65-15,9.65s-3.23-2.08-3.23-10.07S64.11.64,71.63.64c4.21,0,2.65,5,5.15,8.14C78.75,11.29,83,11.39,83,14.91Z"/>
    <path class="b" d="M10.83,15c0,7.94,7.39,9.59,14.86,9.59s3.21-2.06,3.21-10S29.56.85,22.09.85C17.9.85,19.45,5.77,17,8.94,15,11.43,10.83,11.53,10.83,15Z"/>
    <path class="c" d="M91.14,54.88c0,16.22-20.4,25.88-45.57,25.88S0,71.1,0,54.88,20.4,25.5,45.57,25.5,91.14,38.65,91.14,54.88Z"/>
    <path class="c" d="M84,39.25c0,23.47-17.19,45-38.39,45S7.18,62.72,7.18,39.25,24.22,0,45.42,0,84,15.78,84,39.25Z"/>
    <ellipse class="d" cx="44.89" cy="54.62" rx="39.48" ry="13.92"/>
    <ellipse class="e" cx="70.22" cy="33.92" rx="2.67" ry="4.75" transform="translate(-4.25 10.78) rotate(-8.52)"/>
    <ellipse class="f" cx="70.22" cy="31.92" rx="0.98" ry="1.75" transform="translate(-3.95 10.75) rotate(-8.51)"/>
    <ellipse class="e" cx="20.22" cy="33.92" rx="4.75" ry="2.67" transform="matrix(0.15, -0.99, 0.99, 0.15, -16.32, 48.89)"/>
    <ellipse class="f" cx="20.22" cy="31.92" rx="1.75" ry="0.98" transform="matrix(0.15, -0.99, 0.99, 0.15, -14.34, 47.19)"/>
    <path class="g" d="M75.17,56.62a10.9,10.9,0,0,0-.52-3.11C72.92,43.11,60.35,35,45,34.92h-.31C29.42,35,16.85,43.11,15.13,53.51a10.9,10.9,0,0,0-.52,3.11c0,11.55,13.63,17.64,30.13,17.71H45C61.54,74.25,75.17,68.17,75.17,56.62Z"/>
    <ellipse class="h" cx="45.42" cy="40.5" rx="9.55" ry="2.41"/>
    <g>
      <ellipse class="a" cx="57.26" cy="54.62" rx="5.81" ry="8.44"/>
      <g class="i">
        <ellipse class="a" cx="56.26" cy="54.56" rx="4.81" ry="8.37"/>
      </g>
    </g>
    <g>
      <ellipse class="a" cx="33.26" cy="54.62" rx="5.81" ry="8.44"/>
      <g class="j">
        <ellipse class="a" cx="34.26" cy="54.56" rx="4.81" ry="8.37"/>
      </g>
    </g>
    <path class="k" d="M83.87,14.48c0,8-8.06,9.44-14.75,9.44s-2.88-2.08-2.88-10.07S65.06,0,71.75,0c3.75,0,3,5,5.18,8.14C78.68,10.65,83.87,11,83.87,14.48Z"/>
    <path class="k" d="M9.25,14.6c0,7.94,8,9.38,14.66,9.38s2.86-2.06,2.86-10S27.94.21,21.29.21c-3.72,0-2.94,4.92-5.15,8.09C14.41,10.79,9.25,11.1,9.25,14.6Z"/>
  </g>
</svg>
